<?xml version='1.0' encoding='utf-8'?>
<svg xmlns="http://www.w3.org/2000/svg" enable-background="new 0 0 850.4 850.4" version="1.1" viewBox="0 0 850.4 850.4"> <style type="text/css"> .st0{fill:#1A1A1A;} .st1{fill:#FFA659;} .st2{fill:#010000;} .st3{fill:#FEA659;} .st4{fill:#FDA458;} .st5{fill:#FCA458;} .st6{fill:#FAA358;} .st7{fill:#F9A257;} .st8{fill:#F29E56;} .st9{fill:#F5A056;} .st10{fill:#E49752;} .st11{fill:#E59752;} .st12{fill:#E99853;} .st13{fill:#F6A157;} .st14{fill:#E69752;} .st15{fill:#DE9250;} .st16{fill:#F6A056;} .st17{fill:#E49652;} .st18{fill:#C68349;} .st19{fill:#D38C4D;} .st20{fill:#EC9A54;} .st21{fill:#D1894C;} .st22{fill:#C18048;} .st23{fill:#BB7D47;} .st24{fill:#CB874B;} .st25{fill:#C28148;} .st26{fill:#D28A4C;} .st27{fill:#BA7C46;} .st28{fill:#B57945;} .st29{fill:#A97242;} .st30{fill:#8C6039;} .st31{fill:#96683D;} .st32{fill:#A26E40;} .st33{fill:#B17643;} .st34{fill:#8E613A;} .st35{fill:#B67A45;} .st36{fill:#F4E0C9;} .st37{fill:#D8C6B2;} .st38{fill:#81766A;} .st39{fill:#8E8275;} .st40{fill:#FCF6ED;} .st41{fill:#FF596D;} .st42{fill:#F9BF17;} .st43{fill:#F7BE17;} .st44{fill:#FBF5EC;} .st45{fill:#F6BD17;} .st46{fill:#EAD6BA;} .st47{fill:#8C8275;} .st48{fill:#100F0D;} .st49{fill:#CDBEAB;} .st50{fill:#F9EEE2;} .st51{fill:#B5A695;} .st52{fill:#010101;} .st53{fill:#010100;} .st54{fill:#030303;} .st55{fill:#1B1817;} .st56{fill:#E2D9CF;} .st57{fill:#161210;} .st58{fill:#040303;} .st59{fill:#B0A292;} .st60{fill:#0A0908;} .st61{fill:#796F64;} .st62{fill:#27201D;} .st63{fill:#020100;} .st64{fill:#E8DFD4;} .st65{fill:#A59B8E;} .st66{fill:#F0EBE2;} .st67{fill:#F5F0E7;} .st68{fill:#3D3C39;} .st69{fill:#80766A;} .st70{fill:#AA9E8E;} .st71{fill:#B78C11;} </style> <path class="st0" d="m0 852.1v-850c0-1.8 0.3-2.1 2.1-2.1h850.1c0.4 0.7 0.2 1.5 0.2 2.3v847.4c0 2.9 0.3 2.6-2.6 2.6h-847.4c-0.8 0-1.6 0.2-2.4-0.2z"/> <path d="m197.4 335c0.7-1.8 0.9-3.2 0.7-4.7-0.4-3.8 1.1-7.6 0-11.4-0.1-0.2 0-0.4-0.1-0.6-0.2-0.8-1.1-1.7-0.2-2.5 0.9-0.9 1.9-0.2 2.8 0 4.3 1.1 8.5 2.9 12.6 4.6 1.3 0.5 1.9 0.2 2.5-0.9 3.8-7.4 7.9-14.8 11.5-22.3 4.2-8.9 9.6-17 15.6-24.8 6.3-8.1 12.9-16 20.2-23.2 14.2-13.9 29.8-25.9 46.9-35.9 14.6-8.5 29.8-15.4 45.8-20.7 12.7-4.2 25.6-7.3 38.8-9.2 9.7-1.4 19.4-2.1 29.1-2.7 6.9-0.4 13.7 0 20.6 0.3 10.2 0.5 20.4 1.9 30.5 3.8 11.5 2.2 22.8 5.3 33.8 9.1 12.2 4.3 23.9 9.7 35.2 15.9 7.2 3.9 14.2 8.3 21 12.9 1.3 0.9 2.1 0.7 2.9-0.6 3.4-5.4 6.6-6.4 12.8-4.7 8.3 2.3 15.2 7.2 22 12.1 8.1 5.9 15.4 12.7 22.1 20.1 9.5 10.5 18.4 21.5 25.9 33.6 4.6 7.4 7.6 15.4 9.7 23.7 1 3.9-0.1 7.4-2.7 10.5-2.8 3.2-5.2 6.5-6.7 10.5-0.6 1.5-0.6 2.9 0 4.3 5.1 13 9 26.4 11.6 40.1 1.5 7.7 2.4 15.5 3.2 23.3 1.1 11.2 1 22.4 0.6 33.6-0.4 10.1-1.7 20.2-3.6 30.3-2.1 11.4-4.9 22.6-8.7 33.5-3 8.8-6.5 17.4-10.6 25.7-2.8 5.9-5.7 11.7-9.2 17.3-1.7 2.8-1.7 5.7-1.3 8.8 0.4 2.9 0.7 5.9 1.1 8.8 0.6 5.7-2.2 10.3-5.2 14.7-3.5 5.1-7.4 9.9-11.8 14.2-9.3 8.9-19 17.5-30.3 23.8-5.1 2.9-10.4 5.6-16.1 7.2-1.5 0.4-2.9 0.4-4.3-0.3-1.4-0.8-2.7-0.6-4.1 0.4-10.3 7.2-21.4 13.2-32.8 18.5-18.4 8.6-37.8 14.6-57.8 18.3-7.9 1.5-15.9 2.5-23.9 3.2-9.1 0.8-18.1 1-27.2 0.7-11.6-0.5-23.2-1.8-34.7-4-11.1-2.2-22.1-4.9-32.8-8.6-22.4-7.7-43.3-18.4-62.5-32.3-7.6-5.5-14.9-11.4-21.9-17.7-10.1-9.1-19.2-19.2-27.5-30-10.8-14-19.8-29-27.3-45-8-17.1-13.7-34.9-17.2-53.4-1.6-8.3-2.6-16.7-3.5-25.2-1-10.1-0.8-20.2-0.7-30.4 0-2.1 0.3-4.2 0.4-6.3 0.1-1.4-0.4-2-1.8-2.3-5.9-1.2-11.6-3-17-5.9-2.8-1.5-5.4-3.2-7.4-5.6-1.7-2-1.4-2.6 0.8-4 4.6-2.9 8.5-6.8 12.4-10.7 0.6-0.6 0.7-1.1-0.2-1.4-2.7-1.2-3.2-3.7-3.3-6.2-0.1-3.1-0.4-6.2 0.4-9.3 0.2-0.9-0.1-1.4-0.9-2-2.5-1.7-4.9-3.6-7.3-5.4-1.4-1.1-1.5-2.6-0.6-4 1-1.4 0.7-3.6 2.5-4.3 1.6-0.6 2.9 1.1 4.5 1.4 0.6 0.1 1.1 0.3 1.6 0.4 4.3 1 4.4 0.9 6.7-2.8 2.2-3.6 5.5-6.1 9.2-8 1.6-0.8 2.9-0.1 3.8 1.3 0.4 0.4 0.8 1.2 1.4 2.4z"/> <path d="m567.6 749.3c0.6-3.4 1.3-7.4 1.9-11.4 0.3-1.9 0.7-3.7 0.5-5.7-0.6-4.3-4-6.4-6.7-9-2.3-2.1-4.6-4.2-6.5-6.7-2.1-2.8-1.4-4.6 2-5.5 5.2-1.3 10.5-2.4 15.5-4.3 1.7-0.6 3.4-1.5 5.1-2 2.9-0.9 3.7-3.4 4.6-5.7 1.7-4.6 4.6-8.8 5.8-13.7 0.2-0.9 0.8-1.5 1.8-1.5 0.8 0 1.3 0.3 1.7 1 1.4 3 3.5 5.6 5.5 8.3 1.8 2.6 3.5 5.2 4.6 8.1 2 5.1 6 6.7 11 7.2 4.2 0.5 8.5 0.4 12.6 1.3 4.2 0.9 4.9 3.5 1.9 6.6-3 3.2-6.4 6-9.1 9.5-2.1 2.7-3.2 5.8-3.2 9.3 0 5.6 0.6 11.2 0.9 16.7v1.9c-0.3 2.3-1.7 3.2-3.9 2.5-4-1.3-8-2.5-11.7-4.5-2.2-1.2-4.6-2.1-6.9-3.3-1.5-0.8-2.8-0.2-4.1 0.4-4.1 1.9-8.2 3.8-12.4 5.7-0.9 0.4-1.8 0.8-2.8 1.1-5 1.8-8.2-0.5-8.1-6.3z"/> <path d="m129.1 183.9c0.7-3.5 1.4-7.8 2.3-12.1 0.6-2.9 0.1-5.6-1.5-8.1-2.6-4-5.9-7.2-9.6-10.1-2.1-1.6-4.3-3.4-4.4-6.4s1.3-4.4 4.3-4.9c5.4-0.8 11-1.1 16.3-2.5 3.2-0.9 5.9-2.6 7.4-5.8 2.2-4.5 4.5-9 6.2-13.7 0.5-1.3 1-2.9 2.7-3 1.6-0.1 2.5 1.2 3.4 2.3 2 2.7 3 5.9 4.3 9 2.3 5.5 6 9.7 11.4 12.3 1.9 0.9 3.9 1.4 5.9 1.4 3.2-0.1 6.2 0.5 9.2 1.2 1.9 0.4 3.7 1 4 3.2 0.3 2-1.1 3.2-2.5 4.4-2.3 1.9-4.5 3.9-6.9 5.7-5.2 4-5.3 9.5-4.8 15.4 0.5 4.9 1.9 9.8 0.7 14.7-0.6 2.4-1.6 3.2-4.1 3.1-4.1-0.2-7.6-2.1-10.8-4.4-1.4-1-2.7-2.1-4.3-2.7-3.3-1.4-6.5-1.1-9.6 0.5-3.9 1.9-7.8 3.8-11.7 5.6-1.3 0.6-2.6 1.1-4.1 0.8-2.8-0.7-3.8-1.9-3.8-5.9z"/> <path d="m623.8 75.9c-1.8-0.7-4.2-1.3-6.3-2.4-3.4-1.8-6.6-2.2-10.3-0.7-3.3 1.4-6.7 2.8-10.2 3.7-1.1 0.3-2.1 0.5-3-0.4-0.8-0.9-0.5-2-0.2-3 1.1-3.2 1.8-6.4 1.9-9.7 0.1-2.3-0.9-4-2.3-5.7-2.3-2.6-4.8-4.9-7.4-7.3-0.8-0.8-1.8-1.5-1.4-2.9 0.4-1.3 1.6-1.9 2.9-2.2 4.2-1.2 8.5-2.1 12.6-3.5 1.2-0.4 1.8-1 2.3-2.2 1.5-3.3 3.1-6.6 4.8-9.7 1.3-2.5 2.5-2.4 4.2-0.2 2 2.5 3.2 5.5 5.1 8 2.8 3.8 6.6 5.4 11 5.9 2 0.2 4.1 0.3 6.1 0.5 1.5 0.1 2.7 0.8 3.1 2.2 0.3 1.3-0.7 2.1-1.6 3-2.7 2.4-5.5 4.6-7.7 7.5-2.4 3.2-2.2 6.9-1.8 10.6 0.2 2.1 0.5 4.2 0.7 6.3 0.2 1.3-0.5 2.1-2.5 2.2z"/> <path d="m154.3 627c0.6-2.7 0.4-5.9 0.4-9 0-1.2-0.3-2-1.2-2.8-2.2-2.1-4.3-4.3-6.5-6.5-0.9-0.9-1.7-1.8-1.1-3.2 0.5-1.4 1.7-1.7 3.1-1.8 4.5-0.2 8.4-2.4 12.5-3.9 1.6-0.6 2.1-2.5 2.7-3.9 0.9-1.8 1.7-3.7 1.9-5.8 0.1-0.9 0.6-1.5 1.4-1.6 0.9-0.2 1.5 0.4 1.9 1.1 1.1 2.1 2.5 4 3.2 6.2 1.2 3.4 3.6 5 6.9 5.9 3.2 0.9 6.6 0.7 9.8 1.9 1.1 0.4 2.5 0.6 2.7 2s-1 1.8-1.9 2.6c-1.5 1.3-2.9 2.7-4.5 3.9-2 1.6-2.5 3.7-2.5 6 0 3 0.1 5.9 0.4 8.9 0.3 3.7-0.9 4.4-4.2 2.8-1.8-0.9-3.6-1.7-5.3-2.7-1.4-0.8-2.6-0.8-4.1-0.3-3.8 1.4-7.7 2.4-11.5 3.8-2.7 1.1-4.1 0.1-4.1-3.6z"/> <path class="st1" d="m487.6 104.2c0 5.6-4.5 10-10.2 10.1-5.9 0-10.8-4.6-10.8-10.3s4.6-10.2 10.3-10.2c5.9 0 10.7 4.6 10.7 10.4z"/> <path d="m638.3 654.5c-0.1-1.2 0.4-2.2 0.6-3.3 0.6-2.8-0.2-5.2-2.6-6.9-0.8-0.6-1.7-1.1-2.4-1.7-1.7-1.7-1.3-3.2 1-3.9 1.5-0.4 3-1 4.5-1.3 2.6-0.5 4.2-2.1 5.2-4.4 0.3-0.9 0.7-1.7 1.1-2.5 0.4-0.7 0.9-1.6 1.9-1.5 0.9 0.1 1.2 0.8 1.4 1.6 0.1 0.4 0.3 0.8 0.4 1.2 1.6 4.2 3.5 5.6 8 5.6 1.5 0 3-0.1 4.4 0.5 2 1 2.2 2.6 0.3 3.9-0.3 0.2-0.6 0.3-0.9 0.5-3.5 1.9-4.3 3.4-3.6 7.2 0.3 1.6 0.3 3.2 0.3 4.9 0 2.2-1.1 2.8-3 1.7-1.5-0.8-3.1-1.7-4.6-2.7-0.9-0.5-1.5-0.7-2.4 0.1-2 1.6-4.5 2.4-6.9 3.3-1.9 0.8-2.8 0-2.7-2.3z"/> <path d="m225.9 661.8c0.1-0.9-0.4-1.5-0.9-2-1.3-1.2-2.5-2.5-3.7-3.8-0.7-0.8-1.2-1.7-0.8-2.7 0.4-1.1 1.4-1.2 2.5-1.3 4.9-0.3 8.1-2.8 9.7-7.6 0.2-0.7 0.2-1.6 1.2-1.7s1.6 0.6 2 1.3c1.4 2 2.9 3.9 4.7 5.4 1.5 1.2 3.2 1.7 5.1 1.8 1.1 0.1 2.4 0.1 2.8 1.5 0.3 1.3-0.7 1.8-1.5 2.5-2.4 2.1-4.4 4.4-3.3 8.1 0.4 1.4 0.2 3.1 0.7 4.6 0.2 0.8 0.2 1.5-0.5 1.9-0.8 0.4-1.5 0.2-2.1-0.4-1.1-1.1-2.3-2.2-3.7-2.9-1-0.5-1.8-0.6-3 0.2-2.5 1.6-5.5 2.5-8.2 3.9-1.7 0.9-3.1-0.7-2.6-2.8 0.4-1.7 1-3.4 1.5-5.1 0-0.4 0-0.7 0.1-0.9z"/> <path d="m770.3 475.5c0.1-0.7 0.2-2 0.6-3.1 0.7-2.3 0.5-4.3-1.6-5.9-0.5-0.4-0.9-1.1-1.3-1.7-0.8-1.1-2.5-1.6-2.2-3.1 0.3-2 2.2-0.8 3.4-1.2 4.3-1.5 8.3-3.4 9.2-8.6 0.1-0.8 0.5-1.5 1.5-1.5 1.1 0 1.3 0.6 1.7 1.5 1 2.1 2.1 4.2 3.6 6 1.4 1.8 3.9 1.3 5.9 1.9 1 0.3 2.1 0.3 3.1 0.7 1.7 0.6 1.9 2.1 0.5 3.2-0.4 0.3-0.8 0.6-1.2 0.8-3.5 1.7-4 4.6-3.2 8 0.3 1.1 0.2 2.1 0.2 3.2 0 2.3-1.2 3-3.4 2-1.4-0.7-2.8-1.4-4.1-2.3-1.4-0.9-2.5-0.8-3.9 0-1.8 1.1-3.8 2-5.7 2.7-2.4 0.9-3.1 0.4-3.1-2.6z"/> <path class="st1" d="m320.6 188.4c-5.2 0-8.9-2.7-9.6-6.7-0.7-4.2 1.8-8 6.1-9.5 4-1.4 8.1-0.3 10.4 2.6 2.1 2.6 2.4 6.3 0.6 9.2-1.8 3-4.7 4.2-7.5 4.4z"/> <path d="m161.9 721.4c-2 0-3.7-1.1-5.2-2.2-1-0.8-1.8-0.7-2.9-0.3-2.3 0.8-4.6 1.4-6.9 1.9-1.4 0.3-2.6-0.5-1.9-1.8 2.3-4.8 0.4-8.5-2.6-12.1l-0.6-0.9c-0.6-0.7-1.4-1.3-1-2.4 0.5-1.1 1.5-1.2 2.5-1.1 2.7 0.3 5-1.3 7.4-2.1 2-0.7 2.9-3.1 3.1-5.5 0-0.8-0.2-1.9 0.9-2.1 1.1-0.1 1.3 0.9 1.7 1.8 1.5 3.4 3.7 6.2 7.6 7 1.6 0.3 3.2 0.6 4.6 1.5 1.6 0.9 1.8 2.1 0.6 3.4-0.7 0.7-1.5 1.3-2.3 1.9-3 2-3.5 3.1-2.7 6.6 0.3 1.3 0.3 2.5 0.3 3.8 0 2-0.6 2.5-2.6 2.6z"/> <path d="m45.8 356.3c-1.9 0.9-4.3 1.5-6.6 2.3-3.5 1.2-4.5 0.3-3.8-3.3 0.7-3.4 0.2-6.3-2.7-8.5l-0.9-0.9c-2.1-2.1-1.8-3.2 1-4.1 0.9-0.3 1.8-0.6 2.7-0.7 3.9-0.6 5.5-3.4 6.4-6.8 0.2-0.9 0.3-2 1.3-2.2 1.2-0.2 1.9 0.8 2.1 1.7 1.4 5.1 5 7 9.9 7.3 1.1 0.1 2.8-0.1 3 1.4s-1 2.6-2.2 3.4c-2.1 1.4-2.8 3.3-2.4 5.8 0.3 1.9 0 3.8 0.3 5.7 0.2 1.2-1.7 1.8-3.2 1-0.8-0.4-1.5-1-2.3-1.5-0.7-0.3-1.4-0.7-2.6-0.6z"/> <path class="st2" d="m638.3 142.2c-0.1-0.7 0.4-1.4 0.7-2.2 1.1-2.5 0.7-4.7-1.3-6.6-1.1-1-2.2-2-3-3.3-1.1-1.8-0.6-2.8 1.3-3.1 1.2-0.2 2.5-0.5 3.7-0.8 4-1.1 6-3.9 6.6-7.9 0.1-0.7 0.2-1.3 1-1.4 0.7-0.1 1.2 0.5 1.4 1.1 0.3 0.6 0.4 1.4 0.7 2 1.1 2.7 3 4.3 5.9 4.9 2 0.4 4 0.9 5.8 1.9 1.4 0.7 1.7 1.6 0.7 2.9-1.1 1.4-2.3 2.7-3.4 4.1-1 1.2-1.2 2.6-0.9 4.2s0.3 3.2 0.2 4.9c-0.1 1.6-1.2 2-2.6 1.6-0.6-0.2-1.2-0.5-1.7-0.7-3.3-1.5-6.6-1.2-9.8 0.1-1 0.4-2.2 0.6-3.3 0.7-1.3 0-2-0.8-2-2.4z"/> <path class="st1" d="m696.4 590.5c0 3.6-2.9 6.4-6.5 6.4-3.8 0-6.9-3.2-6.9-6.9 0-3.6 2.9-6.4 6.5-6.4 3.9 0 6.9 3.1 6.9 6.9z"/> <path class="st3" d="m484.8 670.9c3.5 0.1 6.1 2.5 6 5.6-0.1 3-2.6 5.3-5.8 5.2-3.3-0.1-6-2.7-5.9-5.8 0.1-2.9 2.5-5.1 5.7-5z"/> <path class="st4" d="m719.1 95.4c-3.5 0.1-6.5-2.2-6.6-5.1-0.1-2.6 2-4.7 4.7-4.8 3.1-0.1 5.8 2.7 5.8 5.9 0 2.3-1.6 3.9-3.9 4z"/> <path class="st5" d="m304.7 640.9c-2.6 0-4.6-1.9-4.6-4.3 0-2.8 2.6-5.2 5.7-5.1 2.6 0 4.7 2 4.7 4.5 0 2.6-2.6 4.9-5.8 4.9z"/> <path class="st6" d="m453.7 726.7c0 2.2-1.7 3.9-3.9 3.9-2.4 0.1-4.9-2.3-4.9-4.6-0.1-2.1 1.7-3.7 4.1-3.7 2.6 0 4.8 2 4.7 4.4z"/> <path class="st5" d="m102.8 480.3c-2.1 0-3.5-1.2-3.5-3.1 0-2.3 2.8-4.7 5.4-4.7 2.2 0 3.9 1.5 3.9 3.6 0.1 2.5-2.3 4.2-5.8 4.2z"/> <path class="st5" d="m118.5 383.7c0 0.7-0.2 1.4-0.6 2-1.1 1.5-3.2 1.8-4.9 0.8-2.8-1.7-4-3.8-3.1-5.6 0.2-0.4 0.5-0.9 0.9-1.1 1.9-1.3 3.7-0.2 5.4 0.5 1.5 0.5 2.3 1.8 2.3 3.4z"/> <path class="st7" d="m340.5 688c0.1 2.5-1.1 3.9-3.1 4s-3.6-1.6-3.6-3.9c-0.1-2.2 1.6-4.1 3.6-4.2 2.1-0.1 3 1.1 3.1 4.1z"/> <path class="st8" d="m369.1 735.7c0 2-1.5 3.5-3.5 3.5s-3.7-1.8-3.7-3.9c0-2 1.5-3.5 3.5-3.5 2.1 0.1 3.8 1.8 3.7 3.9z"/> <path class="st9" d="m271.5 761.2c1.1 0.1 2.1 0.3 3 0.8 1.6 0.9 2.2 2.7 1.4 4.1s-2.5 1.8-4.1 1c-0.7-0.4-1.3-0.9-1.9-1.3-1.1-0.7-1.8-1.6-1.3-3 0.4-1.1 1.5-1.6 2.9-1.6z"/> <path class="st7" d="m748.5 394.4c0.1 1.6-1.2 3-2.9 3-2.3 0.1-4.5-1.6-4.6-3.5 0-1.6 1.1-2.8 2.7-2.9 2.5 0 4.7 1.6 4.8 3.4z"/> <path class="st10" d="m180.7 499.7c0 1.6-1.3 2.8-2.9 2.7-1.7-0.1-2.9-1.4-2.8-3.1 0.1-1.6 1.3-2.9 2.9-2.8 1.6 0.2 2.8 1.6 2.8 3.2z"/> <path class="st11" d="m701.7 246.8c1.6-0.1 2.7 0.2 3.2 1.6 0.3 0.8 0.1 1.6-0.5 2.1-1 0.9-2.1 0.7-3.1 0.1-0.1 0-0.1-0.1-0.2-0.1-0.9-0.6-2.7-0.7-2.3-2.3 0.3-1.5 1.9-1.2 2.9-1.4z"/> <path class="st12" d="m664.2 531c-1.6 0-3-1.2-2.9-2.7 0.1-1.4 0.9-2.2 2.3-2.3 1.6-0.1 3 1.1 3 2.6 0.1 1.4-1 2.4-2.4 2.4z"/> <path class="st13" d="m146.4 288.1c-0.8-0.1-1.5-0.1-2.2-0.2-0.9-0.1-1.7-0.3-1.8-1.4 0-1 0.7-1.5 1.6-1.8 0.7-0.2 1.4-0.3 2.1-0.4 1.4-0.2 2.7 0.2 2.8 1.8 0.1 1.7-1.2 2.1-2.5 2z"/> <path class="st14" d="m509.8 169.3c-1.7 0-2.9-0.5-2.9-2.2 0-1.5 1.1-2.1 2.4-2.1 1.5 0.1 3.3 0.1 3.4 2.1 0 1.9-1.7 2-2.9 2.2z"/> <path class="st15" d="m760.1 295.6c-1.3-0.1-2.5-0.5-2.5-2 0.1-1.5 1.2-2.4 2.7-2.5 1.4-0.1 2.3 0.8 2.3 2.2 0 1.6-1.1 2.1-2.5 2.3z"/> <path class="st16" d="m278.1 118.8c1 0.2 2.2 0.5 2.7 1.8 0.3 0.7-0.3 1.5-0.8 1.5-1.4 0-2.7 1.5-4.1 0.1-0.6-0.6-0.8-1.4-0.4-2.1 0.5-0.9 1.4-1.3 2.6-1.3z"/> <path class="st17" d="m739.7 579.8c1.3 0.3 2.1 1.2 2.1 2.8 0 1.2-0.8 1.7-2 1.6-1.6-0.2-2.8-1.4-2.7-2.7 0.2-1.1 1.2-1.8 2.6-1.7z"/> <path class="st18" d="m602.2 150.8c-1.3-0.2-2.1-0.9-2.1-2.2s0.8-2.1 2.2-2c1.3 0 2 0.9 2 2.2-0.1 1.3-0.9 1.8-2.1 2z"/> <path class="st19" d="m239.4 249.1c-1.2-0.2-2.1-0.7-2.1-2 0-1.4 0.8-2.1 2.2-2.1 1.2 0 2.1 0.6 2.1 1.9 0 1.5-0.9 2-2.2 2.2z"/> <path class="st20" d="m132.5 589.4c-1-0.5-2-1-1.9-2.1 0-1.2 1.2-1.8 2.2-1.8 1.1 0.1 2.3 0.5 2.3 1.9-0.1 1.8-1.9 1.2-2.6 2z"/> <path class="st21" d="m753 186.3c-1.3-0.2-2.1-1.1-2.3-2.4-0.1-1 0.5-1.6 1.5-1.5 1.3 0.1 2.3 0.7 2.4 2.1 0.2 1.1-0.5 1.7-1.6 1.8z"/> <path class="st22" d="m500.2 708.1c1 0.5 2.7 0.2 2.8 1.9 0.1 1-0.8 1.4-1.6 1.1-1.2-0.3-2.7-0.5-2.8-2.1 0-0.8 0.8-0.9 1.6-0.9z"/> <path class="st23" d="m718.5 517.3c1.1 0.1 1.8 0.6 1.8 1.7 0 1-0.7 1.6-1.6 1.6-1.1 0-2-0.6-1.9-1.8 0-1 0.8-1.5 1.7-1.5z"/> <path class="st24" d="m85.9 194.4c-0.5 1-0.7 2.5-2.3 2.6-0.9 0.1-1.1-0.7-1-1.5 0.3-1.3 1-2.2 2.4-2.3 0.7-0.1 1 0.4 0.9 1.2z"/> <path class="st25" d="m242.5 598.1c-0.2 1-0.8 1.4-1.8 1.4-0.9 0-1.7-0.4-1.7-1.5 0-1 0.8-1.5 1.7-1.4 1.1 0 1.7 0.5 1.8 1.5z"/> <path class="st26" d="m399.6 732.3c1 0.1 1.9 0.5 2 1.7 0.1 0.8-0.5 1.3-1.3 1.3-1.1 0-1.9-0.5-2.1-1.7-0.1-0.9 0.4-1.3 1.4-1.3z"/> <path class="st27" d="m704.4 346.8c0 1-0.4 1.7-1.3 1.7-1 0-1.6-0.5-1.6-1.5s0.6-1.6 1.6-1.6c0.8 0 1.2 0.7 1.3 1.4z"/> <path class="st28" d="m512.5 662.1c0.8 0.1 1.7 0.3 1.8 1.4 0 0.8-0.5 1.2-1.2 1.1-0.9-0.2-2-0.4-2-1.5-0.1-0.9 0.6-1 1.4-1z"/> <path class="st29" d="m760.5 354.6c0 0.9-0.6 1.3-1.4 1.4s-1.4-0.2-1.5-1.1 0.5-1.3 1.3-1.3c0.7-0.1 1.3 0.2 1.6 1z"/> <path class="st23" d="m687.3 467c0.8 0.1 1.5 0.5 1.6 1.3s-0.4 1.2-1.1 1.2c-0.9 0-1.7-0.4-1.8-1.4-0.1-0.8 0.5-1 1.3-1.1z"/> <path class="st30" d="m188.6 541.5c-0.7-0.1-1.4-0.3-1.5-1.2-0.1-0.8 0.4-1.2 1.1-1.3 0.9-0.1 1.6 0.3 1.6 1.2 0.1 0.8-0.5 1.2-1.2 1.3z"/> <path class="st31" d="m710.2 409.2c0 0.8-0.4 1.3-1.1 1.3-0.8 0.1-1.3-0.5-1.4-1.3s0.4-1.2 1.1-1.3c0.9 0 1.3 0.5 1.4 1.3z"/> <path class="st32" d="m428.3 686.9c-0.7 0-1.2-0.4-1.3-1.1-0.1-0.8 0.4-1.2 1.1-1.2s1.2 0.4 1.3 1.1-0.4 1.1-1.1 1.2z"/> <path class="st33" d="m345.4 95c-0.8-0.1-1.4-0.6-1.5-1.5-0.1-0.6 0.2-1 0.8-0.9 0.8 0.2 1.6 0.3 1.7 1.3 0.1 0.7-0.4 1-1 1.1z"/> <path class="st34" d="m684.7 167.8c-0.1 0.8-0.5 1.2-1.1 1.1-0.7 0-1.2-0.5-1.2-1.3 0-0.7 0.4-1 1.1-1 0.8 0.1 1.1 0.6 1.2 1.2z"/> <path class="st35" d="m241.1 160.3c-0.9-0.1-1.6-0.3-1.6-1.4 0-0.7 0.6-0.7 1.1-0.5 0.8 0.2 1.7 0.4 1.7 1.3 0.1 0.9-0.7 0.5-1.2 0.6z"/> <path class="st36" d="m542.4 228.4c-1.5 1.3-1.4 2.2 0.5 3.1 2 0.9 4.2 1.1 6.3 1.6 2.3-0.1 3.9 1.2 5.6 2.6 19.5 17.2 36.6 36.6 50.9 58.4 7.6 11.7 13.9 24.1 19.6 36.8 7.7 17.5 13.5 35.6 17.6 54.2 2.7 12.3 4.3 24.7 5.6 37.2 1.7 15.8 1.8 31.7 1.5 47.6-0.1 5.7-0.3 11.5-1.9 17.1-2.1 7.9-5.2 15.4-8.4 23-2.2 5.1-4.7 10.1-7.3 15.2-0.2-1.7-0.4-3.3-0.6-4.9-0.1-0.6-0.4-1.2-1-1.2s-1 0.5-1.2 1.1c-0.3 0.9-0.6 1.8-0.6 2.7-0.9 10-1.2 19.9 2.5 29.6-9 1-16.5 5.5-24 9.9-15.6 9.2-28.5 21.3-37.9 36.9-1.7 2.9-2.9 6-3.4 9.3-6.3-2.3-12.5-1.2-18.7-0.1-0.8 0.1-1.5 0.2-2.3 0.3-7.1 1.2-14.1 0-21.1-0.8-6.7-0.7-13.3-2.1-19.8-3.7-4.1-0.5-7.8-2-11.7-3.2-23.3-7.4-45.1-18.2-65.8-31.1-13.6-8.5-26.3-18.1-38.2-28.8-16.6-14.8-31.1-31.5-43.8-49.7-3.8-5.4-7.5-10.9-11-16.5-0.6-0.9-1.7-2.3 0.6-2.6 1.1 0.1 1.8 0.8 2.6 1.3 1.3 0.9 2 0.6 2.5-0.9 0.2-0.6 0.2-1.3 0.2-1.9-0.2-9.6 1.4-19.1 2.4-28.6 0.7-7.2 0.8-14.5-1.7-21.4-2.5-7-7.5-11.2-14.9-12.3-3-0.4-5.8 0.5-8.4 1.8-2.8 1.5-5.5 3.3-7.8 5.5-0.6 0.6-1.1 1.3-2.1 1.3-1.2-0.3-1.4-1.3-1.8-2.2-1.8-5.2-3.2-10.4-4.6-15.7-0.3-1.3-0.4-2.5 0.7-3.6 2.9-1.8 6.3-2.5 9.5-3.7 5.7-2.1 11.6-3.7 17.4-5.7 1.5-0.5 3.1-1 4.5-1.9 0.7-0.5 1.5-1 1.2-2-0.3-0.9-1.2-1.2-2-1.3-1.1-0.2-2.1 0-3.2 0.3-8.9 2-17.6 4.9-26.1 8.5-1 0.4-1.9 1-3.1 0.7-1.4-0.5-1.5-1.8-1.8-3-1.6-7.5-2.8-15.1-3.6-22.7-1-9.3-1.6-18.6-1.3-28 0.4-13.5 2-26.8 5-40 0.1-0.6 0.3-1.2 0.6-1.8 0.4-1.4 1.5-2 2.6-2.6 11.9-7 23.4-14.8 34.7-22.8 5.3-3.7 10.5-7.5 14.7-12.6 1.6-2 3.1-4 4.4-6.3 1.4-2.5 1.9-2.6 4.1-0.6 1.3 1.1 2.6 2.2 4.1 3.1 0.6 0.4 1.3 0.7 2 0.8 0.8 0.2 1.8 0.5 2.2-0.2 0.4-0.9-0.8-1.2-1.4-1.5-2.8-1.7-5.2-3.9-7.5-6.2-0.7-0.7-1.4-1.5-0.6-2.6 0.6-0.8-0.2-1-0.6-1.1-1.4-0.5-2.9-0.8-4.4-0.8-11-0.6-21.7 1-31.7 5.7-0.9 0.4-1.9 1-3 0.6-0.7-1 0-1.7 0.5-2.5 2.6-4.3 5.1-8.5 8.1-12.5 0.7-0.6 1.5-0.7 2.4-0.8 7-1.4 13.2-4.5 18.9-8.7 1.3-0.9 2.4-2 3.3-3.3 1.2-1.7 1-2.8-0.8-3.8-1.4-0.9-3-0.7-4.5-0.5-0.8 0.1-1.7 0.3-2.5 0.2-1.7-0.2-1.9-1-0.9-2.2 4-4.9 8.7-9.1 13.2-13.6 0.8-0.8 1.9-1 2.8-1.5 8.8-3.2 17.9-5.4 27.1-7.1 38.5-7.2 76.4-4.8 113.7 7.1 0.7 0.2 1.3 0.5 2 0.8 14.7 6.7 27.8 16.2 40.7 25.8 0.2 0.2 0.5 0.3 0.7 0.5 0.5 0.5 1.3 0.9 1.2 1.7-0.1 1.1-1.2 0.2-1.7 0.8z"/> <path class="st37" d="m299.5 294.8c-2.1 8.9-3.5 17.9-4.6 26.9-0.2 1.8-0.3 3.7-0.4 5.5-0.6 7.3-0.8 14.6-0.4 21.9 0.6 10.8 1.4 21.5 3.6 32.1 0.5 2.5 1 5 1.4 7.5 0.1 0.9 0.3 1.5 1.3 1.7 0.1 1.1-0.9 1.2-1.5 1.5-2.3 1.2-4.6 2.5-6.8 4-0.6 0.4-1.3 0.7-1.5 1.6 0.8 0.5 1.6 0.4 2.4 0.2 2.2-0.4 4.5-0.7 6.7-1.4 0.8-0.3 1.6-0.6 2.4 0.1-0.7 0.6-1 1.3-0.7 2.2 1.6 5.9 3.2 11.8 5.2 17.6 0.1 0.4 0.5 0.7 0.7 1 0.3 0.9-0.3 1.6-0.7 2.3-4.2 7-5.9 14.8-6.7 22.8-0.8 7.4-0.2 14.7 1.3 22 0.1 0.6 0.2 1.3 0.2 1.9-0.1 2.5 0 2.5 2.4 1.9 3.6-0.9 7.2-0.7 10.8-0.5 5.9 0.5 11.7 1.2 17.2 3.5 0.9 0.4 2.1 0.5 2.4 1.8-1.3 0.5-0.4 1.1-0.1 1.6 4.8 7.7 9.9 15.2 15.3 22.5 6.5 8.7 13.2 17.1 20.6 25 7.6 8.2 15.5 15.9 24 23.1 9.7 8.4 20 16 30.8 23 11.4 7.3 23.2 13.9 35.5 19.7 13.7 6.5 27.9 11.7 42.6 15.9 0.3 0.1 0.6 0.1 0.8 0.1 9.9 2.8 20 4.4 30.1 6 1 0.2 2.2 0.1 2.8 1.2-1.4 0.8-3 0.9-4.2 1.9-0.6 0.5-1.4 1-1.2 1.9 0.3 0.9 1.2 0.9 2 0.9 2.4 0 4.6-0.7 6.9-1.1 3-0.5 5.9-1.1 9-1.2-0.7 0.4-1.4 0.9-2.1 1.3-39.6 23.5-82.4 34-128.3 31.6-52.9-2.8-99.5-21.3-139.3-56.3-29.1-25.6-50.4-56.6-63.9-92.9l-1.2-3.6c-0.7-3-1.4-6-2-9.1-2.1-11.7-1.5-23.4 0-35.1 1.4-10.7 5.1-20.5 10.5-29.7 2.8-4.8 6.3-9.1 9.9-13.3 0.5-0.6 1.1-1.3 1.9-1 0.6 0.2 0.4 0.8 0.1 1.3-0.2 1-0.8 1.8-1.5 2.5-2.5 3.2-4.5 6.7-6.3 10.3-0.3 0.7-0.7 1.4-0.1 2.8 3.7-5.3 7.5-10.1 9.5-16 2 0.5 2.5 1.4 1.9 3.5-0.7 2.4-1.2 4.9-1.5 7.5 1.2-2.8 1.5-5.8 1.9-8.7 0.1-0.9-0.5-1.5-1.1-1.9-1.1-0.8-1.3-1.8-0.8-3 0.2-0.4 0.3-0.8 0.5-1.3 2.6-3.7 5.6-6.9 9.8-8.9 0.4 0.1 0.8 0.3 1.2 0.4 1.6 0.3 2.2 1.2 1.4 2.7-1.5 2.9-3 5.8-4.5 8.7-0.3 0.5-1 1.1-0.3 2 1.1-1.1 1.7-2.5 3.1-3.6 0.7 1.8 1.4 3.6 2.1 5.3 0.3 0.8-0.3 1.3-0.6 1.9-1.7 2.8-2.9 5.9-3.7 9.1 1 0.3 1.1-0.3 1.3-0.7 0.7-1.4 1.2-2.9 2.1-4.2 2.9-3.9 2.2-7.9 0.5-11.9-0.5-1.2-0.5-2.1 0.1-3.2 0.5-0.9 0.9-1.9 1.4-2.9 0.8-1.6 0.8-3.1-0.5-4.3-0.9-0.8-0.6-1.3 0.1-2 2.3-2.3 4.5-4.6 6.1-7.3 1.9 2.1 1.9 2.8 0.4 4.9-2.1 2.8-3.6 5.7-3.5 9.5 0.1 3.3-0.7 6.6-1 9.9-0.1 0.7-0.1 1.4 0 2.1 0 0.5-0.1 1.3 0.6 1.4s0.7-0.7 0.8-1.3c1.1-4.9 1.8-9.8 1.5-14.8-0.1-0.9 0-1.7 0.5-2.4 0.7-1.1 4-2.6 5.2-2.2 0.7 0.2 0.5 1 0.6 1.5 0.4 2.4 0.7 4.8 1 7.2 0.1 0.6 0.3 1.3 0.4 1.9s0.3 1.2 1 1.1c0.8-0.1 0.6-0.8 0.6-1.4 0.1-3.8-0.4-7.6-1.2-11.4-0.3-1 0.1-1.2 1-1.3 0.7 0 1.4 0.2 2-0.2 2-0.4 3.9 0.3 5.8 0.9 1.1 0.4 2.1 1.1 3.7 0.7-3.1-2.4-6.3-3.8-9.9-3.6-1.3 0.1-2.1-0.3-3-1.1-1.1-1-1.8-2.4-3.8-2.5-0.7 0-1.4-1.6-0.9-2.8s1-2.3 1.5-3.5c0.8-2.1 2.5-2.6 4.4-1.3 0.1 0 0.1 0.1 0.2 0.1 2.5 3 5.2 2.6 8.2 0.7 4-2.5 8.3-4.7 12.4-7 1.1-0.7 2.3-1.4 3-2.6-0.8-0.6-1.3-0.1-1.8 0.2-5.7 3.3-11.9 5.7-17.6 9-1.2 0.7-1.6-0.5-2.3-0.8s-0.8-0.8-0.4-1.6c1.2-2.2 2.4-4.5 3.6-6.8 0.4-0.8 1.3-1.1 2-1.4 2.4-1.1 4.7-2.4 6.8-3.9 0.5-0.4 1.6-0.8 1.2-1.5-0.5-0.9-1.2 0.1-1.8 0.3-0.7 0.2-1.3 0.7-1.9 0.9-5 1.8-8.6 5.1-10.7 10-0.6 1.5-1.7 1.9-3.4 1.7 0.8-2.4 1.1-4.9 1.5-7.3 0.1-0.6 0.3-1.1 1-1.5 2.2-1.2 4.3-2.5 6.5-3.7 0.8-0.4 1.5-0.9 1.4-1.9-0.2-2.8-0.5-5.5-0.8-8.3 0-0.2-0.3-0.5-0.5-1-1 1.7-1.1 3.5-0.9 5 0.4 3.3-0.7 5.6-3.8 6.8-3.7 1.4-4.9 4.4-5.3 8-0.1 0.7 0.3 2-1.1 1.8-1.5-0.2-1.1-1.3-1-2.3 0.5-4.2 0.3-8.4-0.8-12.5-0.2-0.8-0.4-1.6-1-2.1-0.8-0.8-0.3-1.6-0.2-2.5 0.4-3.5 2.3-5.6 5.3-7 1.1-0.5 1.8-1.7 2.1-3.1-2.6 2.2-6.4 2.7-8.1 6-0.5-1-0.4-2.2-0.5-3.4s-0.3-2.4-0.3-3.6c-0.1-2.8-0.1-5.5-0.2-8.3 0-0.5 0.2-1.3-0.6-1.4-0.7 0-0.8 0.8-0.8 1.3-0.2 3.5-0.7 7.1-0.4 10.6 0.2 2.2 0.3 4.4 0.5 6.6-0.9 0.2-1-0.5-1.4-0.8-8.8-10.1-19.2-18.3-31.5-23.9-0.7-0.3-1.9-0.3-1.2-1.8 5.8-11.8 11.1-24 19.1-34.6 29.6-39.6 66.3-69.9 113.4-86.5 2-0.7 4-1.3 6.1-1.9-5.8 4.7-10.8 10.1-15.8 15.6-1 1.1-0.1 1 0.6 1.2-0.4 1.2-1.5 1.2-2.4 1.5-5.5 1.9-10.7 4.5-15.4 8-1.2 0.9-2.4 2-3.3 3.3-1.5 2.2-0.9 3.5 1.6 4.2 1 0.2 2.2-0.1 3.1 0.7-1.7 2.7-3.5 5.4-5.1 8.2-1.3 2.1-2.9 4.2-3.7 6.6-0.3 1.4-1.5 1.5-2.5 2.1-8.8 4.8-17.8 9.5-25.5 16.2-6.9 6-13.1 12.6-17 21.1-0.8 1.8-1.5 3.7-1.9 5.6-0.4 1.8-0.2 3.5 0.5 5.2 2 4.5 2 9.2 1.9 14-0.1 2.3-0.1 4.7-0.4 7-0.1 0.7-0.2 1.8 0.7 2.1s1.3-0.7 1.6-1.4c1.4-2.7 1.6-5.7 1.8-8.7 0.1-2.1 0.1-4.3-0.2-6.4-0.2-1.4 0.4-2.4 1.9-2.5 6.5-0.6 11.9-4 17.5-6.8 1.1-0.5 1.9-1.3 3-0.7z"/> <path class="st37" d="m648.1 487.1c1.5-14 1.4-28 1.1-42-0.1-7.3-0.8-14.5-1.5-21.8-0.6-6.3-1.4-12.6-2.2-18.9-1.5-11.1-3.9-22-6.7-32.8-3.3-12.5-7.5-24.7-12.5-36.5-4.3-10.2-9.2-20.1-14.6-29.7-5.3-9.3-11.2-18.2-17.7-26.7-4.2-5.5-8.7-10.8-13.2-16-5.8-6.9-12.3-13.1-18.7-19.5-2.9-2.8-6-5.4-9-8.1-1.1-1-2.5-1.5-3.9-2 7.6 0.6 13.4-3.3 18.8-7.9 1.2 10.8 8 18.7 14.2 26.7 9.5 12.3 19.5 24.3 30.3 35.4 9.9 10.2 20.8 19.1 33.4 25.7 1.3 0.7 2.7 1.2 4.1 1.8s2.8 0.6 4.4 0.8c-10.1 11.1-12.3 24.9-14 38.9-0.3 2.7-0.2 5.4 0.6 8 0.3 0.8 0.4 2.2 1.4 2.1 1.1-0.1 1-1.5 1.1-2.3 0.3-3.7 0.4-7.5 1-11.2 0.7-4 1.4-8.1 2.8-11.9-1 4.7 0.7 8.8 2 13.1 12.9 44.4 12.7 88.7-0.6 133-0.1 0.7-0.3 1.3-0.6 1.8z"/> <path class="st38" d="m576.1 218.8c5.4 0.7 10.9 3.1 16.2 6.3 15.7 9.8 28.6 22.7 40 37.2 7.2 9.1 14.3 18.2 19.5 28.6 2.6 5.1 4.1 10.6 6.1 15.9 0.3 0.7 0.4 1.5 0.4 2.3 0 1.9-1.3 3.2-3.2 3.1-3.1-0.1-5.7-1.3-8.3-2.9-16.8-10.5-31.1-24-44.2-38.7-8.5-9.5-16.9-19.2-24.5-29.4-2.4-3.2-4.6-6.5-6.3-10.1-1.3-2.7-1.9-5.5-1.2-8.5 0.4-2.6 2.1-3.9 5.5-3.8z"/> <path class="st39" d="m234.8 406.5c0-0.3 0-0.7-0.1-0.8-0.6-0.4-0.8 0.3-1.1 0.6-2.3 3-4.8 5.8-7 8.8-8 11.2-12.5 23.7-14.1 37.3-1 8-1.3 16.1-0.7 24.1 0.4 5.1 1.5 10.2 2.3 15.3 0.1 0.5 0.1 1.1 0.1 1.7-2.9-7.2-4.9-14.6-6.7-22.1-5.5-22-7.3-44.4-6.3-67.1 0-0.6 0.2-1.3 0.2-1.9 0-1.3 0.6-1.5 1.8-1.3 7.4 1.2 14.9 0.3 22.3-0.3 3.1-0.2 6.2-0.3 9.3-1 0.6-0.1 1.2-0.3 1.1 0.7-0.4 2-0.1 4.1-1.1 6z"/> <path class="st38" d="m569.7 610.3c-0.1-3.2 1-6 2.5-8.5 3.1-5.1 6.5-9.9 10.4-14.5 11-13 24.2-23 39.8-30 2.3-1 4.6-1.8 7-2.6 0.7-0.3 1.5-0.5 2.2 0.2 0.6 0.7 0.4 1.5 0.1 2.2-1 3.2-2.8 5.9-4.8 8.5-12.4 16-27.4 29.1-45 39.1-3.6 2-7.4 3.6-11.1 5.4-0.4 0.1-0.7 0.1-1.1 0.2z"/> <path class="st1" d="m255.8 366.8c-5.9-2.8-11.3-5.5-16.5-8.7-6.1-3.7-12.4-7.1-18.7-10.5-6.5-3.5-12.4-8-18.5-12.1-0.5-0.3-0.6-0.6-0.5-1.2 0.5-3.9 0.9-7.7 1.3-11.6 0.2-1.7 1.1-0.9 1.7-0.6 6.3 2.1 12.5 4.7 18.3 7.9 4.4 2.4 8.8 4.9 13 7.6 7.5 4.9 13.1 11.7 18.2 18.9 2 3 1.2 6.6 1.7 10.3z"/> <path class="st1" d="m171.6 385.8c4.4-3.2 8.2-6.7 11.9-10.5 0.6-0.6 1.1-0.5 1.7-0.3 17 5.2 34.3 9.5 50.9 16.1 2.4 1 2.3 0.9 1 2.9-1.2 1.9-2.8 2.6-4.9 2.8-15.3 1.4-30.6 2.2-45.4-3.6-5.3-2-10.3-4.3-15.2-7.4z"/> <path class="st40" d="m208.5 344.1c3 1.8 5.9 3.5 8.9 5.2 0.5 0.3 0.5 0.7 0.5 1.2-1.1 10.3-5.6 18.9-13.2 25.9-0.7 0.6-1.4 0.9-2.3 0.6-2.5-0.8-5-1.5-7.6-2.7 9.3-7.8 12-18.7 13.7-30.2z"/> <path class="st37" d="m542.4 228.4c0.5-0.3 0.9-0.5 1.6-0.9-3.9-2.8-7.6-5.6-11.4-8.3-9.7-6.9-19.7-13.3-30.3-18.8-0.3-0.2-0.5-0.5-0.7-0.7 3.1 0.7 6.1 1.9 9 3.1 16.1 6 31.4 13.8 45.7 23.3 0.6 0.4 1.4 0.7 1.9 1.6-5.3 2-10.6 0.2-15.8 0.7z"/> <path class="st41" d="m206.2 378.2c8.3-7.5 12.5-16.6 13.3-27.6 3 1.8 5.7 3.3 8.4 4.9 0.6 0.4 0.5 0.9 0.4 1.5-1.4 7.7-4.6 14.6-9.3 20.7-0.5 0.6-1.1 1.1-1.6 1.7-1.2 1.2-2.5 1.7-4.3 0.9-2.2-0.9-4.5-1.4-6.9-2.1z"/> <path class="st40" d="m218.9 382c5.3-7.3 9.2-15.1 11.3-23.8 0.3-1.2 0.7-1.1 1.5-0.6 2.1 1.3 4.3 2.5 6.5 3.7 0.9 0.5 1.1 1.1 0.9 2.1-1.6 7.8-5.4 14.6-9.8 21.1-0.6 0.9-1.2 0.7-2 0.4-2.8-1-5.6-2-8.4-2.9z"/> <path class="st41" d="m241.4 363.4c2.9 1.7 5.5 3.2 8.2 4.7 0.8 0.5 1.1 1 0.8 1.9-1.7 6.9-5.3 12.8-9.5 18.3-0.3 0.4-0.7 0.7-1.3 0.5-2.9-0.9-5.8-1.8-8.8-2.7 4.3-7.3 8.9-14.2 10.6-22.7z"/> <path class="st42" d="m200.8 339.4c1.9 1.2 3.4 2.1 4.9 3 0.5 0.3 0.8 0.6 0.7 1.3-1.3 9.7-4.1 18.7-10.8 26.1-1 1-2.1 1.9-3.2 2.8-0.6 0.5-1.2 0.6-1.9 0.3-2.4-0.8-2.4-0.7-0.9-2.8 5.6-7.5 8.1-16.3 10.3-25.2 0.3-1.6 0.8-3.3 0.9-5.5z"/> <path class="st43" d="m194.6 339.1c-0.2 4-1 8-2.4 11.9-1.8 5.1-4.1 10.1-7.3 14.6-0.7 1.1-1.6 2-2.6 2.8-1.7 1.3-2.8 0.9-3.4-1.2-0.9-3-0.8-6.1-0.1-9.1 1.5-6.9 4.4-13.3 8.1-19.3 1.1-1.8 2.7-3.1 4.2-4.5 1.2-1.1 2.3-0.7 2.9 0.9 0.5 1.2 0.5 2.5 0.6 3.9z"/> <path class="st44" d="m241.8 389.3c6-5.1 9.1-11.5 10.9-18.5 0.2-0.9 0.5-1 1.3-0.6 0.6 0.3 1.3 0.5 2 0.8 3.4 1.4 3.4 1.4 1.9 4.8-2.1 5-5 9.5-8.9 13.4-1.3 1.4-2.6 2-4.4 1.1-0.8-0.4-1.7-0.6-2.8-1z"/> <path class="st45" d="m197.2 337.1c1.2 0.4 2 0.8 1.8 2.1-1.3 10.8-3.9 21.2-11.1 29.8-0.6 0.8-1.4 1.4-2.2 2-0.6 0.4-1.3 0.1-1.7-0.4-0.4-0.6 0.2-0.9 0.5-1.2 5.7-6.4 9.4-13.7 11-22.1 0.7-3.4 1.5-6.7 1.7-10.2z"/> <path class="st46" d="m536.5 611c-4.9-0.9-9.8-1.6-14.7-2.6-5.6-1.2-11.2-2.7-16.8-4-0.5-0.1-0.9-0.4-1.3-0.6 3.6 0.7 7.2 1.5 10.8 2.2 5.3 1 10.6 1.6 15.9 2.1 4.9 0.5 9.8 0.8 14.8 0.9-3 0.6-5.8 1.3-8.7 2z"/> <path class="st47" d="m247.2 393.3c-3.5 2.7-6.5 5.9-9.8 8.9 0-1.9 0.5-3.6 2-5 0.7-0.7 1.3-1.5 1.9-2.3 2.3-2.8 2.3-2.8 5.9-1.6z"/> <path class="st7" d="m179.2 346.1c-0.5 1.4-0.9 2.7-1.5 4.2-1.9-1.9-4.3-2.7-6.5-3.6-0.6-0.3-1.7-0.3-1-1.5 0.5-0.8 0.8-1.4 1.9-0.9 2.3 1 4.6 1.4 7.1 1.8z"/> <path class="st48" d="m236.9 403.5c-0.2 1.2 0.1 2.2 1.2 2.8 1.3 0.7 1.5 1.9 1.3 3.3-0.4 2.9-1 5.7-1.9 8.5-0.2 0.5-0.3 1.3-0.9 1.2-0.7-0.1-0.5-0.9-0.5-1.4 0.2-2.8 0.6-5.5 1.6-8.1 0.7-1.7 0.5-2.8-1.2-3.6 0.1-0.9-0.3-1.9 0.4-2.7z"/> <path class="st49" d="m266.8 388.2c-0.7 1.1-2.7-0.4-3.1 1.5-0.5-1.1-1.3-1.3-2.4-0.8-0.8 0.3-1.6 0.5-2.6 0.4 0.8-1.5 1.7-2.8 0.9-5 2.4 1.9 3.7 5 7.2 3.9z"/> <path class="st1" d="m560.1 714.3c3.9-1.4 7.6-1.8 11.3-2.6 3.3-0.7 6.5-1.6 9.5-2.9 3.4-1.5 5.3-4.6 6.9-7.8 1.8-3.6 3.3-7.4 4.5-11.2 0.7 0 0.8 0.5 1 0.9 2.6 4.6 5.6 9 7.4 14.1 1.3 3.6 4 5.8 7.6 6.9 4.6 1.4 9.3 1.8 14.1 2.1 1.1 0.1 2.3-0.1 3.4 0.5-1.1 1.7-2.4 3.2-4 4.4-7.8 6.2-10.3 14.3-8.6 23.9 0.5 2.6 0.3 5.2 0.4 7.9 0 1.2-0.2 1.6-1.5 1.3-4.6-1-8.9-2.8-12.8-5.2-4.9-3-9.4-2.7-14.2 0.1-3.4 2-7.1 3.6-10.7 5.2-2.6 1.2-3.4 0.5-3-2.4 0.7-4.5 1.3-9 2.2-13.4 1.1-5.4-0.3-9.7-4.5-13.3-3-2.7-6.1-5.3-9-8.5z"/> <path class="st1" d="m153.5 120.5c1.5 2.1 2.6 3.9 3.4 6 2 5.2 4.4 10.1 8.6 14 4 3.8 8.7 5.6 14.1 5.6 2.7 0 5.2 0.6 8 1.6-1.9 2.1-3.9 3.9-5.9 5.6-1.2 1-2.4 2-3.5 3.1-4.1 4.1-4.8 9.1-4.1 14.6 0.6 4.3 1.4 8.6 1.3 12.9-0.1 2.4-0.3 2.6-2.6 2.2-3.1-0.5-5.8-1.9-8.4-3.5-1.3-0.9-2.6-1.8-4-2.5-4.1-2-8.3-2.6-12.7-0.6-3.9 1.8-7.9 3.2-11.5 5.5-0.7 0.4-1.7 1.1-2.4 0.6-0.8-0.6-0.1-1.6 0.1-2.3 0.9-3.9 1.8-7.7 2.4-11.7 0.5-3.6-0.2-6.9-2.3-9.9-2.8-3.9-5.9-7.5-9.7-10.4-1.1-0.9-2.1-1.9-3.1-2.9-0.5-0.5-1.1-1.1-0.9-1.8 0.3-0.9 1.2-0.6 1.8-0.7 2.5-0.3 4.9-0.5 7.4-0.7 10.9-1 17.7-7.2 21.3-17.2 0.9-2.3 1.7-4.7 2.7-7.5z"/> <path class="st1" d="m623.4 71.2c-4.6-1-8.6-3.8-13.3-2.9-4.4 0.8-8.4 2.9-12.8 4.6 0.7-3.1 1.2-6 1.6-9 0.4-3.1-0.4-5.6-2.5-7.8-2.2-2.3-4.4-4.7-6.5-7-0.3-0.3-0.8-0.6-0.9-1.2 2.5-0.8 5-1.8 7.7-1.9 0.5 0 1-0.2 1.5-0.3 4-0.6 6.9-2.5 8.4-6.5 1-2.6 1.8-5.3 2.8-8.2 1.4 1.3 2 2.9 2.9 4.3s1.9 2.8 2.8 4.3c2.8 4.5 6.8 6.8 12 7.5 1.2 0.2 2.6 0.1 3.9 0.8-2.8 3.4-6.7 5.8-8.2 10.2-1.4 4.4 0.7 8.5 0.6 13.1z"/> <path class="st1" d="m168.3 593.4c2.6 3.8 3.3 8.1 7.4 9.9 3.6 1.6 7.5 2.1 11.4 3-1 1.5-2.5 2.3-3.8 3.4-2.1 1.7-2.9 3.8-2.8 6.5 0.2 3.3 0 6.6 0 10.1-1.5-0.9-3.1-1.7-4.6-2.6-2.1-1.3-4.2-1.6-6.5-0.8-3.6 1.1-7.2 2.2-10.9 3.3 0.1-3.8 1.2-7.6-0.3-11.2-1.4-3.5-5.1-5.2-7.6-8.4 8.5-0.9 15-4.2 17.7-13.2z"/> <path class="st1" d="m658.8 640.7c-4.6 2.8-4.5 7-3.9 11.5-1.6-0.5-2.8-1.3-4-2-1.5-0.9-2.9-0.9-4.3 0.2-1.3 1-2.8 1.7-4.5 2.2 0.8-4.7-0.5-8.5-4.7-11.6 4.4-1.1 8.7-1.8 9.9-6.9 4.5 5.2 4.5 5.2 11.5 6.6z"/> <path class="st1" d="m225.5 655c4.8-0.9 6.6-4.7 9.1-7.8 2.9 2.8 4.8 7.1 10.3 6.6-4 2.9-5.7 6.4-2.9 11.2h-0.6c-1.2-0.7-2.3-1.4-3.5-2.1-1.6-0.9-3-1-4.3 0.7-1.1 1.5-3.1 1.2-5.2 2.4 1.8-4.7 1.1-8.3-2.9-11z"/> <path class="st1" d="m773.9 474.4c0.5-6.9 0.5-6.9-3.5-11.7 5-0.6 7.9-3.7 9.7-8.1 2 1.8 2.1 4.7 4.1 6 2.1 1.4 4.7 0.9 7.2 1.9-1.6 1.7-3.8 2.6-4.1 5.2-0.2 2.2-0.2 4.4 0.1 6.7-2.6-0.6-4.2-3.2-6.8-3-2.5 0.1-4.3 2.2-6.7 3z"/> <path class="st1" d="m147.8 717c3.1-5.1-0.3-8.4-3.1-11.8 7.8-3.3 7.8-3.3 10.8-7.3 2.1 5.1 6.4 6.7 12.1 6.9-2.6 2.1-5.3 3-6 5.7-0.7 2.6 0.9 5.1 0.7 7.9-1.5-0.5-2.9-1.1-4-2.1-1.6-1.4-3.2-1.6-5.1-0.7-1.5 0.7-3.1 1-4.6 1.5-0.4 0-0.6-0.1-0.8-0.1z"/> <path class="st1" d="m33.9 343.7c2.4-0.8 4.5-1.4 6.5-2.3 2.1-1 2.5-3.3 3.6-5.8 1.5 6.1 5.9 7 10.9 7.6-5.3 2.7-4 7.3-3.6 11.5-0.3 0-0.5 0.1-0.5 0.1-2.6-2-5.3-2.4-8.3-0.7-1.1 0.7-2.5 0.9-4.2 1.4 1.3-5-0.5-8.7-4.4-11.8z"/> <path class="st1" d="m637.9 129.1c6.6-2.4 6.6-2.4 9.9-9 1.6 6.6 6.6 7.5 12 7.8-0.1 1.1-0.9 1.4-1.5 2-2.4 2.5-4.5 5-3 8.8 0.4 1.1 0.3 2.2-1.4 1.5-3.6-1.3-7.2-1-10.8 0.5-1.1 0.4-2 0.7-1.4-1.1 1-3.1 0.3-5.9-2-8.2-0.6-0.7-1.1-1.4-1.8-2.3z"/> <path class="st50" d="m531 247.5c1.1 1.8 3.1 2.5 4.7 3.9 3.1 2.7 6.2 5.3 9.4 7.9 1.6 1.3 2.5 2.9 3 4.8 1 0 1.2 0.9 1.6 1.4 0.9 1.3 1.8 2.5 3.1 3.4 0.8 0.6 1.7 1 2.7 0.2 0.2-0.1 0.4-0.1 0.6-0.1 0.3 0.1 0.5 0.2 0.5 0.6 2.2 2.4 4.3 4.9 6.5 7.2 8.3 8.6 15.9 17.6 22.7 27.5 6.7 9.7 12.8 19.7 17.9 30.3 8.9 18.3 15.5 37.4 19.2 57.4 1.1 5.8 1.5 11.6 2 17.5 0.5 5.8 0.1 11.5-0.2 17.2-0.4 6.7-1.8 13.3-3.1 19.9-1 5.2-2.8 10.1-4.8 14.9-1.4 3.3-3.4 4.5-7 4.2-2.1-0.2-4.2-2.1-4.9-4.7-0.1-0.3-0.2-0.6-0.2-0.8 1.1-4-1.1-7.3-2-10.9-0.2-0.9-0.7-1.7-0.5-2.7 0-0.3 0-0.6 0.2-0.9 1.6-2.3 2.1-4.9 1.8-7.6-0.1-1.1-0.3-2.2-1.5-2.6-1.1-0.3-1.5 0.8-2.1 1.5-0.2 0.3-0.4 0.7-1 0.6-1.3-1.8-1.8-4-2.5-6-1.2-3.4-2.5-6.9-3.9-10.2 6.3-4.7 6.3-11.3 5.2-18.2-0.2-1.3-0.8-2.4-1.5-3.5-1.8-2.9-4.8-3.1-7-0.4-0.9 1-1.5 2.2-2 3.5-0.3 0.7-0.4 1.6-1.4 1.6-1.2-0.6-1.4-1.9-1.9-3-6.4-14-13.2-27.8-20.9-41.1-4.8-8.3-9.6-16.5-14.8-24.6-6.6-10.4-13.6-20.5-20.9-30.5-6.7-9.1-13.6-18-20.6-26.9-5.8-7.4-11.9-14.5-17.8-21.8-5.8-7.1-12.2-13.6-18.7-20-3.6-3.6-7.7-6.7-11.7-9.8-2.9-2.2-4.7-4.8-4.8-8.7-0.1-3.5 2.9-5.7 5.8-5.8 4.1-0.1 7.8 1.4 11.5 2.9 9.8 3.9 19.3 8.3 28.6 13.1 1.8 0.9 3.4 2.4 5.5 2.7 1-0.1 1.6 0.6 2.1 1.2 6 6.7 13.4 11.3 21.8 14.2 0.3 0.2 1.1 0.3 1.3 1.2z"/> <path d="m299.5 294.8c-3.2 1.7-6.4 3.4-9.6 5-3.3 1.7-6.8 2.9-10.5 3.1-1.5 0.1-1.5 0.6-1.4 1.8 0.6 4.4 0.4 8.8-0.7 13.1-0.4 1.6-0.9 3.2-2.2 4.3-1 0.8-1.8 0.8-2.1-0.7-0.3-1.2-0.2-2.4 0-3.6 0.5-5 0.6-10.1-0.3-15.1-0.2-1-0.3-2-0.8-2.8-1.7-3-1.6-6.1-0.5-9.3 2.2-6.7 6.2-12.3 10.8-17.4 5.9-6.5 12.8-11.9 20.4-16.3 5.2-3.1 10.5-6 15.8-8.8 7.4-3.2 15-6 23.1-6.7 4.9-0.4 9.8-0.6 14.6 0.2 0.8 0.1 1.5 0.4 2.2 0.7s1.6 0.7 1.5 1.6c-0.2 0.9-1.2 0.1-2 0.7 2.8 2.9 5.5 5.8 9.1 7.8 0.9 0.5 2.4 0.9 2 2.1-0.5 1.3-2.1 1-3.2 0.8-2.4-0.5-4.3-2.1-6.2-3.6-0.9-0.7-1.7-1.5-2.6-2.4-5 10.8-14.5 17.1-23.6 23.6-10.6 7.6-21.6 14.7-32.8 21.3-0.3 0-0.7 0.3-1 0.6z"/> <path d="m334.2 472.9c-5.1-2.6-10.6-3.5-16.1-4.2-5.4-0.7-10.9-1.1-16.2 0.7-0.6 0.2-1.3 0.2-1.7-0.5-0.3-0.5-0.3-1.2 0.2-1.6 0.8-0.7 0.4-1.3 0.3-2.1-2.8-11.8-2.5-23.5 0.6-35.1 1.2-4.7 3.3-9 6-13 2.6-2.8 5.6-5.2 9-7 8-4.2 16.9-2 22.2 5.4 3.1 4.3 4.1 9.3 4.6 14.4 0.7 6.6-0.4 13.2-1 19.7-0.7 7.1-1.9 14.1-1.6 21.2v1.3c-0.2 1.1 0.1 2.5-1.3 3.1s-2.2-0.5-3.1-1.3c-0.7-0.4-1.2-0.9-1.9-1z"/> <path class="st51" d="m563.4 471.3c-0.3 0-0.7-0.1-1-0.1-3.1-4.4-5.6-8.9-6.3-14.4-1.3-10.5-0.1-20.7 3.8-30.5 1-2.5 2.3-4.8 4-6.8 3.5-4.2 7.9-3.9 10.8 0.8 2.5 4.1 3.5 8.7 3.9 13.4 0.7 9.2-0.2 18.2-3.8 26.7-1.4 3.2-3 6.3-5.7 8.6-1.8 1.4-3.5 2.5-5.7 2.3z"/> <path d="m448.3 474.5c0.2-12.6 2.4-24.9 7.4-36.5 3.4-7.9 8.8-14.1 17.7-16.3 4.5-1.1 8.6-0.3 12.6 2.1 5.9 3.4 10.1 7.9 11.5 14.8 0.9 4.4 0.4 8.8 0.4 13.2-0.1 8.1-2.4 15.8-3.4 23.8-0.4 3.3-1.2 6.6-1.2 9.9 0 0.6-0.1 1.3-0.3 1.9-0.6 2.5-1.4 2.9-3.7 1.8-8.5-4.2-17.3-7.2-26.9-7.2-2.7 0-5.2 0.5-7.7 1.3-6.3 1.9-6.3 1.8-6.4-4.7v-4.1z"/> <path d="m563.4 471.3c6.8-2.3 9.5-7.9 11.6-14 3.4-10 3.9-20.1 1.6-30.4-0.6-2.9-1.7-5.6-3.6-7.8-2.1-2.5-4.5-2.7-7.1-0.7-2.1 1.7-3.5 3.9-4.6 6.3-3.9 8.5-5.2 17.5-4.9 26.7 0.1 3.8 0.6 7.5 1.8 11.1 0.8 2.2 1.7 4.2 3.5 5.8 1 0.8 1.1 1.8 0.7 2.9-1.7 1.4-2.9 0.5-3.9-0.9-3.1-4.2-4.5-9.2-5.2-14.2-1.4-10.3-0.6-20.4 3.3-30.1 1.3-3.3 3-6.3 5.5-8.8 4.7-4.7 10-4.3 13.8 1.2 2.7 4 3.8 8.5 4.3 13.2 1.1 10.3 0.2 20.4-3.6 30.1-1.1 3-2.7 5.8-4.9 8.2-1.5 1.6-3.3 2.9-5.6 3.1-1.4 0.1-2.6-0.1-2.7-1.7z"/> <path d="m387.3 509.6c-7-0.2-15.5-3-21.4-11.4-1.5-2.2-2.7-4.5-3.3-7.1-0.3-1.2-0.6-2.6 0.9-3.1 1.4-0.5 2 0.8 2.4 1.9 2.9 6.9 8.2 11 15.1 13.4 5.9 2 11.9 2.1 17.8 0.4 6.9-2 13.2-5 18-10.7 1.2-1.5 3.1-1.6 4.3-0.5s1.2 3-0.2 4.3c-8.8 8-18.8 12.9-33.6 12.8z"/> <path class="st51" d="m538.1 242.8c0.6 0.7-1.6 0.9-0.4 1.8-2.2 1.6-4.6 1.3-6.9 0.6-3.4-1-6.5-2.9-9.4-4.8-5.7-3.8-11.3-7.9-15.7-13.3-0.5-0.7-1-1.3-1.4-2.1-1.2-2.4-0.3-3.9 2.4-4 1.9-0.1 3.6 0.5 5.4 1.2 5 1.9 9.5 4.8 13.8 7.8 4.2 3.3 8.4 6.7 10.9 11.6 0.2 0.6 0.7 1 1.3 1.2z"/> <path d="m302.1 396.3c-3.5 0.9-6.9 2-10.5 2.1-0.8 0-1.9 0.4-2.2-0.7-0.3-1 0.8-1.2 1.3-1.7 3-2.3 6.3-3.9 9.6-5.6 8.9-3.6 17.9-6.9 27.3-9.2 1.6-0.4 3.2-0.8 4.8-0.6 1.3 0.2 2.4 0.7 2.7 2s-0.7 1.9-1.6 2.5c-1.6 1.1-3.5 1.6-5.3 2.2-8.4 2.8-16.8 5.4-25.1 8.5l-1 0.5z"/> <path class="st2" d="m506.9 409.8c-5-0.2-9.7-1-14.2-2.5-5.5-1.8-11-3.8-16.3-6-1.2-0.5-2.5-1.1-3.6-1.8s-1.8-1.7-1.2-3.1c0.6-1.3 1.7-1.6 3-1.4 0.6 0.1 1.1 0.2 1.6 0.4 10 3.8 20.1 7.1 29.9 11.6 0.4 0.2 0.8 0.3 1.1 0.6 0.7 0.4 2 0.5 1.8 1.5-0.3 1.3-1.6 0.4-2.1 0.7z"/> <path class="st52" d="m525.8 230.6c-4.2-2.8-8.5-5.7-13.3-7.5-2-0.8-4-1.5-6.2-1.5-1.9 0-2.4 0.8-1.8 2.6 0.4 1.1 1.2 2.1 2 3 6.6 7.2 14.3 12.9 23.1 17.1 2.7 1.3 5.3 1.1 8.1 0.5 1.3 1.6 0.3 2.4-1.1 3-1.9 0.8-3.8 0-5.7-0.1-10.1-3.1-18.6-8.7-25.5-16.6-1.2-2-2.6-3.9-3.2-6.2-0.8-3.1 0.4-4.9 3.5-5.1 1.9-0.1 3.7 0.4 5.4 0.9 5.5 1.8 10.2 5 14.6 8.7 0.4 0.3 1 0.5 0.8 1.2 0 0.2-0.4 0.2-0.7 0z"/> <path class="st52" d="m327.2 233.4c-1.3 0-2.5 0.2-3.8-0.1-2.3-0.6-3.1-2.2-1.9-4.3 1-1.8 2.5-3.2 4.2-4.4 4.9-3.6 10.3-6.4 16.2-8.2l1.8-0.6c1.5-0.2 3.1-0.3 4.6-0.5 1.9-0.3 3.2 0.9 4.4 2 0.9 0.8 0.5 1.8 0 2.7-1.1 1.8-2.6 3.2-4.3 4.4-6.4 4.6-13.4 7.8-21.2 9z"/> <path class="st53" d="m586.3 404.4c0.9-1.9 1.5-4 2.9-5.6 2.7-3.1 6-2.9 8.2 0.6 3.2 5.1 2.7 15.3-1 20-0.9 1.1-2 1.8-3.4 2-2.3 1.2-3.6 0.9-5.1-1.7-2.5-4.3-2.8-8.9-1.9-13.7 0.1-0.5 0.2-1.1 0.3-1.6z"/> <path class="st52" d="m369.4 226.8c-1.2 0-2.4-0.1-3.6-0.5-2-0.7-2.6-2.2-1.5-4 1.8-2.9 8.9-5.7 12.1-4.7 1.2 0.4 2.4 1.2 3.2 2.1 1 1.1 0.2 2.3-0.7 3.1-2.6 2.7-5.9 3.9-9.5 4z"/> <path class="st54" d="m556.5 269.7-0.4-0.4c-1.6-1.6-3.5-2.8-4.8-4.7 0.8 1.2 1.8 2.2 3 3 0.6 0.4 1.3 0.9 1.3 1.8-0.3 1.7-1.3 1.3-2.3 0.8-2.5-1.3-3.9-3.6-5.3-5.9 0-0.5-0.1-1-0.1-1.5 0-2 1.3-3.1 3.2-2.3 3.5 1.4 5.6 4.3 7.2 7.5 0.7 1.2-0.3 1.9-1.8 1.7z"/> <path class="st55" d="m599.5 437.6c0-0.1 0.1-0.1 0.1-0.2 0.8-1.2 1.1-3.1 3-2.7 1.8 0.4 2 2.2 2.1 3.8 0.1 2.8 0 5.5-2.3 7.6-1.7 0.5-1.7-0.4-1.1-1.5 1-1.9 1.5-3.8 1.3-5.9 0-0.5 0-1-0.6-1.5-1.1 1.3-1 2.9-0.9 4.4 0.1 0.9 0.4 1.8 0.1 2.7-0.2 1-0.7 1.5-1.8 0.8-1.5-2.5-0.4-5 0.1-7.5z"/> <path class="st56" d="m599.5 445.1c1.6 0.2 1.5-0.8 1.3-1.9-0.5-2-0.5-3.9 0.1-5.8 0.2-0.7 0.5-1.7 1.4-1.6 1 0.1 1 1.1 1.1 1.8 0.3 2.7 0.3 5.3-1.8 7.5-0.7 0.7-0.6 0.8 1 1.1l-0.4 0.4c-1.2-0.1-2-0.7-2.7-1.5z"/> <path class="st57" d="m525.8 230.6c1.4-0.4-0.1-0.9 0-1.3 5.1 3.6 9.7 7.7 12.3 13.6-0.7 0.8-1.3 0.6-1.6-0.2-2.1-5.4-6.6-8.6-10.7-12.1z"/> <path class="st53" d="m271.1 535c14.6 3.1 23.7 16.1 28.7 30.4 2.9-2.3 6.2-3.3 9.8-3.5 1.1 0 2.8-0.5 2.9 0.8 0.1 1.1-1.7 0.7-2.7 0.9-3.9 0.8-7.8 1.1-10.9 4.1-2 1.9-4.7 1.5-7.2 0.5-4.3-1.8-7.7-4.8-10.8-8.1-4.6-5-8.5-10.4-12.4-16-1.5-2.2-1.5-4.8-2.1-7.2-0.1-0.3 0.2-0.8 0.4-1.2 2.3-3.7 3.1-7.7 2.9-12 0-1-0.5-2.5 0.8-2.7s1.7 1.4 1.9 2.5c1 3.9 0.3 7.7-1.3 11.5z"/> <path class="st52" d="m313.6 599.5c0.6-1 1.5-0.8 2.5-0.6 2.2 0.6 4.1 1.6 6 2.8 4.3 2.6 8 5.8 11.1 9.8 1.1 1.4 2.1 2.9 2.5 4.7 0.5 2.3-0.6 3.8-2.9 3.9-1.5 0.1-3-0.3-4.3-0.9-6.4-2.8-11.8-6.8-16-12.3-1-1.4-1.9-2.8-2.1-4.6-0.2-1.9 0.6-2.6 2.5-2.7 0.2 0.1 0.4 0.2 0.5 0.4 0.5 5.8 5 8.8 8.8 12.2 2.3 2.1 5 3.7 8 4.7 0.8 0.3 1.8 0.7 2.3-0.1 0.5-0.7-0.2-1.5-0.6-2.1-4.2-5.5-9.3-9.7-15.8-12.2-1.4-0.6-3.2-0.8-2.5-3z"/> <path class="st38" d="m313.6 599.5c-0.2 1.4 0.8 1.8 1.8 2.1 6.8 2.3 12.2 6.5 16.5 12.1 0.9 1.1 2.2 2.6 1.4 3.7-1 1.3-2.8 0.3-4.1-0.3-6-2.7-10.9-6.8-14.9-12-1.4-1.8-1.3-3.7-1.5-5.7 0.2 0.1 0.5 0.1 0.8 0.1z"/> <path class="st52" d="m316.2 579c0.1-1.9 0.9-2.5 2.5-1.6 4.1 2.4 7.4 5.8 9.2 10.3 1 2.3-0.8 4.1-3.2 3.6-4-0.9-9.8-7.3-10.1-11.4 0.9-1.2 1.6-0.7 2.4 0.1 1.6 1.4 2.7 3.3 4.3 4.6 0.6 0.5 1.2 1 2 1.5-2-2.9-5.1-4.4-7.1-7.1z"/> <path class="st58" d="m344.3 601.6c0.7-0.7 1.4-0.4 2.2 0 3 1.6 5.7 3.7 7.8 6.4 0.7 0.9 1.2 1.9 0.5 2.9s-1.8 1-2.9 0.6c-3.8-1.2-6.8-3.4-9.2-6.5-0.4-0.5-0.7-1.1-0.5-1.7 0.3-0.8 1.1-0.3 1.7-0.3 2.8 1.6 4.8 4.5 8 5.6-1.6-1.6-3.5-2.9-5.5-4-1.1-0.6-2.8-1-2.1-3z"/> <path class="st59" d="m242.4 497.7c0.8 0 0.6-1.7 1.8-0.9 1.6 2.2 3.8 4 5.1 6.5 0.1 1.1 2.2 2.5-0.4 3.3-3.8-1.4-5.2-4.8-6.7-8.1-0.1-0.3 0-0.5 0.2-0.8z"/> <path class="st60" d="m242.4 497.7c1.5 3.5 3.4 6.6 6.5 8.9-0.1 0.3-0.4 0.5-0.7 0.4-2.9-1.4-5.4-3.2-6.7-6.3-0.5-1.2-1-2.5 0.9-3z"/> <path class="st61" d="m316.2 579c3.4 2.2 6.5 4.6 8.8 8.7-1.9-0.6-2.9-1.7-4-2.6-1.6-1.4-2.9-3.1-4.2-4.7-0.6-0.8-1.2-1.5-2.2-0.5 0-1.2 0.9-0.8 1.6-0.9z"/> <path class="st61" d="m344.3 601.6c-0.1 1.2 0.7 1.7 1.7 2.1 2.2 0.9 4.1 2.2 5.8 3.9 0.5 0.5 1.1 1.1 1.3 2.1-4-1.3-6.7-3.8-9.2-6.7-0.1-0.5-0.2-1.1 0.4-1.4z"/> <path class="st62" d="m249.3 503.3c-1.8-1.9-3.7-3.8-5.5-5.7-0.3-0.3 0-0.6 0.4-0.8 2.3 1.7 4.5 3.5 5.1 6.5z"/> <path class="st63" d="m192.5 343.7c-0.4 7.1-3.3 13.3-7.7 18.8-0.7 0.9-1.7 1.9-3.1 1.3-1.3-0.6-1.5-1.9-1.3-3.1 0.9-7.4 3.1-14.2 7.9-20 0.8-1 1.9-1.3 3-1 1.2 0.3 0.8 1.5 1 2.3 0.1 0.6 0.1 1.1 0.2 1.7z"/> <path class="st52" d="m540.2 274.4c-0.7 1.1-1.6 1.5-2.9 0.9-5-2.2-9.3-5.4-12.4-10-0.3-0.5-0.6-1-0.8-1.5-0.5-1.2-0.9-2.5 0-3.6s2.2-1.2 3.5-0.9c6.5 1.6 11.4 5.4 15.1 11 0.5 0.7 0.7 1.6 0.6 2.4-0.2 1.4-0.8 2.2-2.3 1.2-2.7-4.7-6.4-8.2-11.1-10.8-0.9-0.5-1.7-1.1-2.9-1 0 1 0.7 1.5 1.2 2.1 2.9 3.1 6.2 5.6 10.1 7.2 1.4 0.6 2.8 1.2 1.9 3z"/> <path class="st64" d="m540.2 274.4c0-1.3-0.8-1.9-2-2.4-4.7-1.8-8.5-4.8-11.6-8.7-0.4-0.5-1.1-1.1-0.5-1.8 0.5-0.6 1.3-0.1 1.8 0.1 5.7 2.8 11.1 5.8 13.2 12.4-0.3 0.1-0.6 0.3-0.9 0.4z"/> <path class="st65" d="m555.6 269.3c-0.8-1.1-2.1-1.6-3.1-2.5-1.2-1-2.3-2-2.4-4.1 2.5 2 4.3 4.2 6 6.5-0.1 0-0.3 0.1-0.5 0.1z"/> <path class="st38" d="m350 243.8c5.7 0 5.8 0 4 4.1-2.4 5.6-6.5 9.8-11.2 13.4-17.1 12.8-34.9 24.5-53.6 35-3.2 1.8-6.5 3.1-10.2 3.4-1.3 0.1-1.9-0.5-2.8-1.4-3-2.9-1.7-5.7-0.3-8.6 4.4-9.3 11.4-16.5 19.4-22.5 10.2-7.7 21.2-13.9 33-18.9 7.3-3.2 15.1-4.3 21.7-4.5z"/> <path class="st40" d="m330.7 412.7c-4.2 4-5.5 9.1-6 14.4-0.5 5.6 0.3 11.1 2.3 16.3 2.1 5.6 5.6 10 11.3 12.2 1.1 0.4 0.9 1.1 0.8 1.9-0.3 4.4-1.1 8.7-1.8 13.2-10.2-5.3-21.1-5.4-32.1-4.5-1.1 0.1-1.7 0-1.9-1.3-1.4-11.9-1.3-23.6 1.7-35.3 2-7.7 6.4-13.5 13.7-16.9 4-2 7.9-2.1 12 0z"/> <path class="st44" d="m325.8 426.8c0.1-2.5 0.6-4.8 2.4-6.7 1.4-1.5 3.1-1.7 4.6-0.6 1.7 1.3 2.2 3.2 1.3 4.8-0.6 1.2-0.6 2.3 0.1 3.4 1.4 2.1 1 4.4-0.9 5.7-1.8 1.2-4.2 0.8-5.6-1.2-1.3-1.5-1.9-3.3-1.9-5.4z"/> <path class="st66" d="m330 443.2c-1.9 0-3.1-1.3-3.2-3.1-0.1-1.9 1-3.4 2.6-3.6 0.9-0.1 1.1 0.2 0.8 1.1-0.4 1.1-0.1 2.1 0.6 3 0.4 0.5 1.5 0.5 0.9 1.6-0.3 0.6-1.1 0.9-1.7 1z"/> <path class="st40" d="m481.4 450.5c1.3 7.1 4.3 13.2 10.9 16.9 0.8 0.4 0.8 0.8 0.7 1.5-1 5.6-2 11.3-3 17-12.5-5.8-25-9.3-38.7-4.7-0.1-4 0-7.7 0.3-11.5 0.9-9.8 2.6-19.4 6-28.6 2.6-6.9 6.9-12.3 14-15.1 4.6-1.8 9-1.7 13.2 1.1 1.3 0.9 2.6 1.7 4.1 2.6-3.1 1.6-5.2 3.8-6.1 7 0.1 2.1-0.5 4.2-1 6.2-0.7 2.5-0.6 5-0.4 7.6z"/> <path class="st44" d="m483.2 437.2c2.1-3.1 6-3.4 7.6-0.5 0.5 0.9 0.7 1.5-0.5 2.3-1.6 1-1.9 3-0.5 4.2 1.7 1.5 1.3 3 0.3 4.4-1.1 1.6-2.8 2.2-4.7 1.6-2.3-0.7-3-2.6-3.5-4.7-0.7-2.7 0.1-5 1.3-7.3z"/> <path class="st67" d="m485.9 451.5c1.4 0 2.8 1.7 2.5 3.6-0.2 1.3-1.2 2.1-2.5 2.1-1.7 0-2.5-1.1-2.7-2.7-0.1-1.6 1.2-3 2.7-3z"/> <path class="st68" d="m483.2 437.2c-0.7 2.4-1.4 4.7-1.3 7.3-1 1.9-0.1 4-0.5 6-1-4.7-0.4-9.3 1.3-13.8l0.5 0.5z"/> <path class="st38" d="m324.9 231.6c-0.6 0-1.4 0-1.8-0.5-0.5-0.7 0.2-1.4 0.6-1.9 0.6-0.7 1.2-1.4 2-2 6.3-5 13.4-8.3 21.2-9.7 0.4-0.1 0.8-0.1 1.3-0.1 1.4-0.1 1.7 0.5 0.9 1.6-0.6 0.8-1.2 1.6-1.9 2.2-5.9 4.9-12.6 8.1-20 10-0.7 0.3-1.5 0.3-2.3 0.4z"/> <path class="st69" d="m596.5 407.8c-0.1 3.4-0.6 6.8-2.4 9.7-1.1 1.8-1.9 1.8-3.2 0.1-0.4-0.5-0.7-1.1-0.9-1.7-1.3-4.9-1-9.7 1-14.3 0.5-1.1 1.1-2.4 2.5-2.2 1.3 0.1 1.7 1.4 2.1 2.5 0.7 1.9 1 3.9 0.9 5.9z"/> <path class="st70" d="m366.3 224.4c2.7-2.9 6.3-3.7 10-3.9-2.8 2.6-6.3 3.6-10 3.9z"/> <path class="st38" d="m272 537.8c1 0 2.2 0.5 3.3 1.1 8.5 3.9 14.5 10.3 18.7 18.5 1 2.1 2.2 4.2 3.2 6.3 0.4 0.8 0.7 1.9 0 2.6-0.7 0.9-1.8 0.6-2.8 0.4-2-0.6-3.7-1.8-5.4-3-5.4-4-9.7-9.2-13.8-14.4-2.1-2.6-4.4-5.1-5.8-8.2-0.8-2 0.1-3.3 2.6-3.3z"/> <path class="st71" d="m190.1 342.5c0.3 7.9-3.6 13.7-7.2 20-1.2-3.3 3.2-15.6 7.2-20z"/> </svg>